<?xml version="1.0" encoding="UTF-8"?>
<svg width="420px" height="347px" viewBox="0 0 420 347" version="1.1" xmlns="http://www.w3.org/2000/svg" xmlns:xlink="http://www.w3.org/1999/xlink">
    <!-- Generator: Sketch 49.1 (51147) - http://www.bohemiancoding.com/sketch -->
    <title>ffconf-pinkish</title>
    <desc>Created with Sketch.</desc>
    <defs>
        <linearGradient x1="50%" y1="100%" x2="50%" y2="0%" id="linearGradient-1">
            <stop stop-color="#FA71CD" offset="0%"></stop>
            <stop stop-color="#C471F5" offset="100%"></stop>
        </linearGradient>
    </defs>
    <g id="ffconf-pinkish" stroke="none" stroke-width="1" fill="none" fill-rule="evenodd">
        <path d="M226.1156,347 L158.315634,347 L158.315634,221.392316 L199.889677,221.392316 L226.1156,221.392316 L226.1156,347 Z M283.131431,347 L283.131431,221.392316 L324.705475,221.392316 L328.664908,174.67101 L283.131431,174.67101 L283.131431,152.102243 C283.131431,139.432058 284.319261,131.513193 302.532652,131.513193 C309.263687,131.513193 319.954156,132.701023 327.873021,134.284796 L335,89.5432058 C319.558212,86.3756596 307.679914,84 291.44624,84 C244.724934,84 226.1156,106.172823 226.1156,145.767151 L226.1156,174.67101 L203.84911,174.67101 L158.315634,174.67101 L158.315634,152.102243 C158.315634,139.432058 159.503463,131.513193 177.716854,131.513193 C184.44789,131.513193 195.138358,132.701023 203.057224,134.284796 L210.184202,89.5432058 C194.742415,86.3756596 182.864117,84 166.630442,84 C119.909136,84 101.299802,106.172823 101.299802,145.767151 L101.299802,174.67101 L72,174.67101 L72,221.392316 L101.299802,221.392316 L101.299802,347 L50.8381128,347 C19.1548758,310.224871 0,262.349366 0,210 C0,94.0202025 94.0202025,0 210,0 C325.979797,0 420,94.0202025 420,210 C420,262.349366 400.845124,310.224871 369.161887,347 L283.131431,347 Z" id="Combined-Shape" fill="url(#linearGradient-1)"></path>
    </g>
</svg>