<svg xmlns="http://www.w3.org/2000/svg" xmlns:xlink="http://www.w3.org/1999/xlink" id="content" viewBox="0 0 1300 192"><path id="XMLID_1_" fill="#757575" d="M680.5 52.35h28.03c28.54 0 46.47 19.07 46.47 45.83 0 26.88-17.92 45.83-46.47 45.83H680.5V52.35zm28.03 80.39c20.99 0 34.43-12.54 34.43-34.56 0-21.89-13.44-34.56-34.43-34.56h-16.26v69.12h16.26zm52.86-20.1c0-17.79 12.29-33.41 30.72-33.41 18.69 0 30.72 13.18 30.72 33.41 0 .9-.13 2.18-.13 2.18h-49.54c.64 13.31 10.24 20.48 19.97 20.48 6.91 0 13.82-2.82 17.15-10.75l10.5 4.35c-3.71 8.96-12.93 17.15-27.39 17.15-19.19 0-32-14.47-32-33.41zm30.47-22.66c-8.7 0-15.62 5.89-17.92 15.1h36.35c-.38-5.5-4.99-15.1-18.43-15.1zm35.07-8.7h12.8l18.43 48.64h.26l18.69-48.64h12.54L864.05 144h-11.78l-25.34-62.72zm63.61 31.36c0-17.79 12.29-33.41 30.72-33.41 18.69 0 30.72 13.18 30.72 33.41 0 .9-.13 2.18-.13 2.18h-49.54c.64 13.31 10.24 20.48 19.97 20.48 6.91 0 13.83-2.82 17.15-10.75l10.5 4.35c-3.71 8.96-12.93 17.15-27.39 17.15-19.2 0-32-14.47-32-33.41zm30.47-22.66c-8.71 0-15.62 5.89-17.92 15.1h36.35c-.38-5.5-4.99-15.1-18.43-15.1zM961.46 144V52.35h11.78V144h-11.78zm85.76-31.36c0 19.07-13.44 33.41-32.26 33.41s-32.26-14.34-32.26-33.41c0-19.07 13.44-33.41 32.26-33.41s32.26 14.34 32.26 33.41zm-11.78 0c0-14.34-9.98-22.66-20.48-22.66s-20.48 8.32-20.48 22.66 9.98 22.66 20.48 22.66 20.48-8.32 20.48-22.66zm32.51 22.66h-.51l.51 8.7v27.65h-11.78V81.28h11.26v8.7h.51c3.58-5.76 11.39-10.75 21.38-10.75 15.87 0 29.83 14.21 29.83 33.41s-13.95 33.41-29.83 33.41c-9.98 0-17.78-4.99-21.37-10.75zm39.43-22.66c0-14.08-9.47-22.66-19.97-22.66s-19.97 8.32-19.97 22.66 9.47 22.66 19.97 22.66 19.97-8.58 19.97-22.66zm18.3 0c0-17.79 12.29-33.41 30.72-33.41 18.69 0 30.72 13.18 30.72 33.41 0 .9-.13 2.18-.13 2.18h-49.54c.64 13.31 10.24 20.48 19.97 20.48 6.91 0 13.83-2.82 17.15-10.75l10.5 4.35c-3.71 8.96-12.93 17.15-27.39 17.15-19.2 0-32-14.47-32-33.41zm30.46-22.66c-8.7 0-15.62 5.89-17.92 15.1h36.35c-.38-5.5-4.99-15.1-18.43-15.1zm40.45 54.02V81.28h11.26v10.24h.51c2.56-7.17 11.65-11.78 18.18-11.78 3.84 0 6.4.51 8.83 1.54l-4.48 11.01c-1.66-.64-3.71-.9-6.27-.9-8.06 0-16.26 6.78-16.26 18.3V144h-11.77zm42.37-15.87l10.5-4.35c3.33 7.94 9.47 11.78 17.02 11.78 7.3 0 12.54-3.58 12.54-8.83 0-3.2-1.92-6.66-8.58-8.32l-12.67-3.07c-5.76-1.41-16.77-6.4-16.77-17.41 0-11.39 11.78-18.69 24.83-18.69 10.88 0 20.35 4.99 24.19 14.59l-10.24 4.22c-2.43-5.89-8.19-8.32-14.34-8.32-6.66 0-12.42 2.94-12.42 8.06 0 3.97 3.33 6.14 8.32 7.3l12.42 2.94c12.42 2.94 17.28 10.62 17.28 18.3 0 11.14-9.98 19.71-24.71 19.71-15.09.01-23.66-8.95-27.37-17.91zm-952.49 17.92c15.62 0 27.39-5.12 36.61-14.72 9.47-9.47 12.42-22.79 12.42-33.54 0-3.33-.26-6.4-.77-8.96h-48.26v14.34h34.31c-1.02 8.06-3.71 13.95-7.81 18.05-4.99 4.99-12.8 10.5-26.5 10.5-21.12 0-37.63-17.02-37.63-38.15 0-21.12 16.51-38.15 37.63-38.15 11.39 0 19.71 4.48 25.86 10.24l10.11-10.11c-8.58-8.19-19.97-14.46-35.97-14.46-28.93 0-53.25 23.55-53.25 52.48 0 28.93 24.32 52.48 53.25 52.48zm88.03-67.59c-18.69 0-33.92 14.21-33.92 33.79 0 19.46 15.23 33.79 33.92 33.79s33.92-14.34 33.92-33.79c0-19.58-15.23-33.79-33.92-33.79zm0 54.28c-10.24 0-19.07-8.45-19.07-20.48 0-12.16 8.83-20.48 19.07-20.48s19.07 8.32 19.07 20.48c0 12.03-8.83 20.48-19.07 20.48zm74-54.28c-18.69 0-33.92 14.21-33.92 33.79 0 19.46 15.23 33.79 33.92 33.79s33.92-14.34 33.92-33.79c0-19.58-15.23-33.79-33.92-33.79zm0 54.28c-10.24 0-19.07-8.45-19.07-20.48 0-12.16 8.83-20.48 19.07-20.48s19.07 8.32 19.07 20.48c0 12.03-8.83 20.48-19.07 20.48zm90.83-52.23v5.5h-.51c-3.33-3.97-9.73-7.55-17.79-7.55-16.9 0-32.39 14.85-32.39 33.92 0 18.95 15.49 33.67 32.39 33.67 8.06 0 14.46-3.58 17.79-7.68h.51v4.86c0 12.93-6.91 19.84-18.05 19.84-9.09 0-14.72-6.53-17.02-12.03l-12.93 5.38c3.71 8.96 13.57 19.97 29.95 19.97 17.41 0 32.13-10.24 32.13-35.2V80.51h-14.08zm-17.02 52.23c-10.24 0-18.82-8.58-18.82-20.35 0-11.9 8.58-20.61 18.82-20.61 10.11 0 18.05 8.7 18.05 20.61-.01 11.77-7.94 20.35-18.05 20.35zm56.19-88.07h-14.85V144h14.85V44.67zm40.71 88.07c-7.55 0-12.93-3.46-16.38-10.24l45.19-18.69-1.54-3.84c-2.82-7.55-11.39-21.5-28.93-21.5-17.41 0-31.87 13.7-31.87 33.79 0 18.94 14.34 33.79 33.54 33.79 15.49 0 24.45-9.47 28.16-14.98l-11.52-7.68c-3.85 5.63-9.1 9.35-16.65 9.35zm-1.16-41.22c5.89 0 10.88 2.94 12.54 7.17l-30.21 12.54c-.38-13.06 10.12-19.71 17.67-19.71z"/><g id="XMLID_30_"><defs><path id="XMLID_35_" d="M84.92 32H43.06L9.61 90a11.999 11.999 0 0 0 0 11.99l33.46 58h41.85L48 96l36.92-64z"/></defs><clipPath id="XMLID_46_"><use overflow="visible" xlink:href="#XMLID_35_"/></clipPath><path id="XMLID_50_" fill="#db4437" d="M48 96l36.92-64H43.06L27.07 59.72z" clip-path="url(#XMLID_46_)"/><g id="XMLID_40_" class="st2"><g id="XMLID_95_"><path id="XMLID_103_" fill="#4285f4" d="M9.61 90a11.999 11.999 0 0 0 0 11.99l33.46 58h41.85L27.07 59.72 9.61 90z"/></g></g><path id="XMLID_39_" fill="#1a237e" d="M9.61 101c-.98-1.71-1.49-3.59-1.57-5.5-.09 2.24.42 4.49 1.57 6.5l33.46 58h41.85l-.58-1H43.06L9.61 101z" clip-path="url(#XMLID_46_)" opacity=".2"/><g id="XMLID_31_" class="st2"><path id="XMLID_34_" fill="#fff" d="M43.06 32L27.07 59.72l.29.51L43.06 33h41.28l.58-1z" opacity=".2"/></g><path id="XMLID_38_" fill="#3e2723" d="M48 96l36.92-64h-.58L47.72 95.49z" clip-path="url(#XMLID_46_)" opacity=".2"/><path id="XMLID_33_" fill="#fff" d="M9.61 91l17.47-30.28L84.34 160h.58L27.07 59.72 9.61 90a11.895 11.895 0 0 0-1.57 6.5c.07-1.9.58-3.79 1.57-5.5z" clip-path="url(#XMLID_46_)" opacity=".2"/><radialGradient id="XMLID_157_" cx="2585.585" cy="-1128.5" r="41.138" gradientTransform="rotate(180 1306.46 -534)" gradientUnits="userSpaceOnUse"><stop offset="0" stop-color="#3e2723" stop-opacity=".2"/><stop offset="1" stop-color="#3e2723" stop-opacity=".02"/></radialGradient><path id="XMLID_32_" fill="url(#XMLID_157_)" d="M48 96l5.61-9.72L27.1 59.76z" clip-path="url(#XMLID_46_)"/></g><g id="XMLID_36_"><defs><path id="XMLID_45_" d="M182.39 90l-33.46-58h-41.85L144 96l-36.92 64h41.85l33.46-58c2.15-3.71 2.15-8.29 0-12z"/></defs><clipPath id="XMLID_158_"><use overflow="visible" xlink:href="#XMLID_45_"/></clipPath><path id="XMLID_37_" fill="#ffc107" d="M144 96l-36.92 64h41.86l15.99-27.72z" clip-path="url(#XMLID_158_)"/><g id="XMLID_29_" clip-path="url(#XMLID_158_)"><g id="XMLID_99_"><path id="XMLID_105_" fill="#0f9d58" d="M182.39 102c2.14-3.71 2.14-8.28 0-11.99l-33.46-58h-41.85l57.85 100.28L182.39 102z"/></g></g><path id="XMLID_41_" d="M182.39 91c.98 1.71 1.49 3.59 1.57 5.5.09-2.24-.42-4.49-1.57-6.5l-33.46-58h-41.85l.58 1h41.28l33.45 58z" class="st12"/><path id="XMLID_42_" d="M144 96l-36.92 64h.58l36.63-63.49z" class="st12"/><path id="XMLID_43_" fill="#263238" d="M182.39 101l-17.47 30.28L107.66 32h-.58l57.85 100.28L182.39 102c1.16-2.01 1.67-4.26 1.57-6.5-.07 1.9-.58 3.79-1.57 5.5z" clip-path="url(#XMLID_158_)" opacity=".2"/><radialGradient id="XMLID_159_" cx="164.667" cy="131.5" r="41.138" gradientUnits="userSpaceOnUse"><stop offset="0" stop-color="#bf360c" stop-opacity=".2"/><stop offset="1" stop-color="#bf360c" stop-opacity=".02"/></radialGradient><path id="XMLID_44_" fill="url(#XMLID_159_)" d="M144 96l-5.61 9.72 26.51 26.52z" clip-path="url(#XMLID_158_)"/></g></svg>